<svg width="200" height="42" viewBox="0 0 200 42" fill="none" xmlns="http://www.w3.org/2000/svg">
<path d="M22.4736 4.48429V10.3764H7.30001V19.71H18.9279V25.4979H7.30001V40.88H1.0682e-05V4.48429H22.4736ZM31.3521 8.55143C30.0659 8.55143 28.9883 8.15167 28.1193 7.35215C27.285 6.51786 26.8678 5.49238 26.8678 4.27572C26.8678 3.05905 27.285 2.05095 28.1193 1.25143C28.9883 0.417143 30.0659 2.80516e-07 31.3521 2.80516e-07C32.6383 2.80516e-07 33.6986 0.417143 34.5328 1.25143C35.4019 2.05095 35.8364 3.05905 35.8364 4.27572C35.8364 5.49238 35.4019 6.51786 34.5328 7.35215C33.6986 8.15167 32.6383 8.55143 31.3521 8.55143ZM34.95 11.9929V40.88H27.65V11.9929H34.95ZM58.1703 11.5757C61.6117 11.5757 64.3926 12.6707 66.5131 14.8607C68.6336 17.016 69.6938 20.0402 69.6938 23.9336V40.88H62.3938V24.9243C62.3938 22.63 61.8203 20.8745 60.6731 19.6579C59.526 18.4064 57.9617 17.7807 55.9803 17.7807C53.9641 17.7807 52.365 18.4064 51.1831 19.6579C50.036 20.8745 49.4624 22.63 49.4624 24.9243V40.88H42.1624V11.9929H49.4624V15.5907C50.4357 14.3393 51.6698 13.366 53.1645 12.6707C54.6941 11.9407 56.3626 11.5757 58.1703 11.5757ZM125.285 4.48429L115.117 40.88H106.514L99.6829 14.965L92.5393 40.88L83.9879 40.9321L74.185 4.48429H82.0065L88.42 32.7457L95.8243 4.48429H103.959L110.946 32.5893L117.411 4.48429H125.285ZM133.754 8.55143C132.468 8.55143 131.39 8.15167 130.521 7.35215C129.687 6.51786 129.269 5.49238 129.269 4.27572C129.269 3.05905 129.687 2.05095 130.521 1.25143C131.39 0.417143 132.468 2.80516e-07 133.754 2.80516e-07C135.04 2.80516e-07 136.1 0.417143 136.934 1.25143C137.804 2.05095 138.238 3.05905 138.238 4.27572C138.238 5.49238 137.804 6.51786 136.934 7.35215C136.1 8.15167 135.04 8.55143 133.754 8.55143ZM137.352 11.9929V40.88H130.052V11.9929H137.352ZM155.618 41.3493C153.255 41.3493 151.134 40.9321 149.257 40.0979C147.38 39.2288 145.885 38.0643 144.773 36.6043C143.695 35.1443 143.104 33.5279 143 31.755H150.352C150.491 32.8674 151.03 33.7886 151.968 34.5186C152.942 35.2486 154.141 35.6136 155.566 35.6136C156.957 35.6136 158.034 35.3355 158.799 34.7793C159.599 34.2231 159.998 33.5105 159.998 32.6414C159.998 31.7029 159.512 31.0076 158.538 30.5557C157.6 30.0691 156.088 29.5476 154.002 28.9914C151.847 28.47 150.074 27.9312 148.683 27.375C147.328 26.8188 146.146 25.9671 145.138 24.82C144.164 23.6729 143.678 22.126 143.678 20.1793C143.678 18.5802 144.13 17.1202 145.033 15.7993C145.972 14.4783 147.293 13.4355 148.996 12.6707C150.734 11.906 152.768 11.5236 155.097 11.5236C158.538 11.5236 161.285 12.3926 163.335 14.1307C165.386 15.8341 166.516 18.1457 166.725 21.0657H159.738C159.633 19.9186 159.147 19.0148 158.278 18.3543C157.443 17.6591 156.314 17.3114 154.888 17.3114C153.567 17.3114 152.542 17.5548 151.812 18.0414C151.117 18.5281 150.769 19.206 150.769 20.075C150.769 21.0483 151.256 21.7957 152.229 22.3171C153.202 22.8038 154.715 23.3079 156.765 23.8293C158.851 24.3507 160.572 24.8895 161.928 25.4457C163.283 26.0019 164.448 26.871 165.421 28.0529C166.429 29.2 166.951 30.7295 166.985 32.6414C166.985 34.31 166.516 35.8048 165.578 37.1257C164.674 38.4467 163.353 39.4895 161.615 40.2543C159.911 40.9843 157.913 41.3493 155.618 41.3493ZM199.831 25.8107C199.831 26.8536 199.762 27.7921 199.623 28.6264H178.505C178.679 30.7121 179.409 32.346 180.695 33.5279C181.981 34.7098 183.563 35.3007 185.44 35.3007C188.151 35.3007 190.081 34.1362 191.228 31.8071H199.101C198.267 34.5881 196.668 36.8824 194.304 38.69C191.94 40.4629 189.038 41.3493 185.596 41.3493C182.815 41.3493 180.313 40.741 178.088 39.5243C175.898 38.2729 174.177 36.5174 172.926 34.2579C171.709 31.9983 171.101 29.3912 171.101 26.4364C171.101 23.4469 171.709 20.8224 172.926 18.5629C174.142 16.3033 175.846 14.5652 178.036 13.3486C180.226 12.1319 182.746 11.5236 185.596 11.5236C188.343 11.5236 190.793 12.1145 192.949 13.2964C195.139 14.4783 196.825 16.1643 198.006 18.3543C199.223 20.5095 199.831 22.995 199.831 25.8107ZM192.271 23.725C192.236 21.8479 191.558 20.3531 190.237 19.2407C188.916 18.0936 187.3 17.52 185.388 17.52C183.58 17.52 182.051 18.0762 180.799 19.1886C179.583 20.2662 178.835 21.7783 178.557 23.725H192.271Z" fill="white"/>
</svg>
